<?xml version="1.0" encoding="utf-8"?>
<!-- Generator: Adobe Illustrator 28.2.0, SVG Export Plug-In . SVG Version: 6.00 Build 0)  -->
<svg version="1.1" id="Layer_1" xmlns="http://www.w3.org/2000/svg" xmlns:xlink="http://www.w3.org/1999/xlink" x="0px" y="0px"
	 viewBox="0 0 612 792" style="enable-background:new 0 0 612 792;" xml:space="preserve">
<style type="text/css">
	.st0{fill:#F7941D;}
	.st1{filter:url(#Adobe_OpacityMaskFilter);}
	.st2{fill:url(#SVGID_00000009582853920418472690000006157256580336654979_);}
	.st3{mask:url(#SVGID_1_);}
	.st4{fill:#F04923;}
	.st5{fill:#00AEEF;}
	.st6{filter:url(#Adobe_OpacityMaskFilter_00000176725857916686045580000017841519088138431407_);}
	.st7{fill:url(#SVGID_00000094601918240492628190000000521187130683497655_);}
	.st8{mask:url(#SVGID_00000088134514343050507710000002697517622449950618_);}
	.st9{fill:#1C75BC;}
</style>
<g>
	<g>
		<g>
			<path class="st0" d="M433.37,372.16L433.37,372.16c9.68,10.14,9.39,26.3-0.64,36.09L306.62,531.3c-10.03,9.79-26,9.5-35.68-0.65
				h0c-9.68-10.14-9.39-26.3,0.64-36.09l126.11-123.06C407.72,361.72,423.69,362.01,433.37,372.16z"/>
			<path class="st0" d="M432.73,408.24L432.73,408.24c-10.03,9.79-26,9.5-35.68-0.65L275.38,280.05
				c-9.68-10.14-9.39-26.3,0.64-36.09l0,0c10.03-9.79,26-9.5,35.68,0.65l121.67,127.54C443.04,382.3,442.76,398.46,432.73,408.24z"
				/>
		</g>
		<defs>
			<filter id="Adobe_OpacityMaskFilter" filterUnits="userSpaceOnUse" x="265.42" y="236.53" width="177.91" height="301.58">
				<feColorMatrix  type="matrix" values="1 0 0 0 0  0 1 0 0 0  0 0 1 0 0  0 0 0 1 0"/>
			</filter>
		</defs>
		<mask maskUnits="userSpaceOnUse" x="265.42" y="236.53" width="177.91" height="301.58" id="SVGID_1_">
			<g class="st1">
				
					<linearGradient id="SVGID_00000165941480178507603550000016204883506316937914_" gradientUnits="userSpaceOnUse" x1="531.4284" y1="822.7323" x2="616.6715" y2="908.252" gradientTransform="matrix(-0.9999 -0.011 0.011 -0.9999 907.0444 1183.9313)">
					<stop  offset="0.0611" style="stop-color:#009BDE"/>
					<stop  offset="1" style="stop-color:#002A67"/>
				</linearGradient>
				<path style="fill:url(#SVGID_00000165941480178507603550000016204883506316937914_);" d="M392.18,327.88l-71.77-76.92
					l-19.03,53.98l78.68,84.33C380.07,389.27,412.82,355.87,392.18,327.88z"/>
			</g>
		</mask>
		<g class="st3">
			<path class="st4" d="M436.45,373.43L436.45,373.43c9.56,10.25,9.1,26.4-1.03,36.08L307.97,531.15
				c-10.14,9.67-26.11,9.21-35.67-1.05l0,0c-9.56-10.25-9.1-26.4,1.03-36.08l127.45-121.64
				C410.91,362.71,426.88,363.18,436.45,373.43z"/>
			<path class="st4" d="M431.82,409.51L431.82,409.51c-10.14,9.67-26.11,9.21-35.67-1.05l-120.27-128.9
				c-9.56-10.25-9.1-26.4,1.03-36.08l0,0c10.14-9.67,26.11-9.21,35.67,1.05l120.27,128.9C442.42,383.68,441.96,399.84,431.82,409.51
				z"/>
		</g>
	</g>
	<g>
		<g>
			<path class="st5" d="M60.05,403.38L60.05,403.38c-9.68-10.14-9.39-26.3,0.64-36.09l126.12-123.04c10.03-9.79,26-9.49,35.68,0.65
				l0,0c9.67,10.14,9.39,26.3-0.64,36.09L95.73,404.03C85.7,413.81,69.72,413.52,60.05,403.38z"/>
			<path class="st5" d="M60.69,367.29L60.69,367.29c10.03-9.79,26-9.49,35.68,0.65L218.03,495.5c9.67,10.14,9.39,26.3-0.64,36.09
				l0,0c-10.03,9.79-26,9.49-35.68-0.65L60.05,403.38C50.37,393.23,50.66,377.08,60.69,367.29z"/>
		</g>
		<defs>
			
				<filter id="Adobe_OpacityMaskFilter_00000119100847293287884070000008027661059449264062_" filterUnits="userSpaceOnUse" x="52.98" y="237.1" width="176.59" height="301.64">
				<feColorMatrix  type="matrix" values="1 0 0 0 0  0 1 0 0 0  0 0 1 0 0  0 0 0 1 0"/>
			</filter>
		</defs>
		
			<mask maskUnits="userSpaceOnUse" x="52.98" y="237.1" width="176.59" height="301.64" id="SVGID_00000039830483205680093390000010649882051216898177_">
			<g style="filter:url(#Adobe_OpacityMaskFilter_00000119100847293287884070000008027661059449264062_);">
				
					<linearGradient id="SVGID_00000020359390460138879550000004037992015526959775_" gradientUnits="userSpaceOnUse" x1="112.0184" y1="420.8137" x2="197.251" y2="506.3228">
					<stop  offset="0.0611" style="stop-color:#009BDE"/>
					<stop  offset="1" style="stop-color:#002A67"/>
				</linearGradient>
				<path style="fill:url(#SVGID_00000020359390460138879550000004037992015526959775_);" d="M104.81,448.44l72.59,76.12
					l18.44-54.19l-79.59-83.45C116.25,386.91,83.87,420.68,104.81,448.44z"/>
			</g>
		</mask>
		<g style="mask:url(#SVGID_00000039830483205680093390000010649882051216898177_);">
			<path class="st9" d="M60.05,403.38L60.05,403.38c-9.68-10.14-9.39-26.3,0.64-36.09l126.12-123.04c10.03-9.79,26-9.49,35.68,0.65
				l0,0c9.67,10.14,9.39,26.3-0.64,36.09L95.73,404.03C85.7,413.81,69.72,413.52,60.05,403.38z"/>
			<path class="st9" d="M60.69,367.29L60.69,367.29c10.03-9.79,26-9.49,35.68,0.65L218.03,495.5c9.67,10.14,9.39,26.3-0.64,36.09
				l0,0c-10.03,9.79-26,9.49-35.68-0.65L60.05,403.38C50.37,393.23,50.66,377.08,60.69,367.29z"/>
		</g>
	</g>
</g>
</svg>
